<svg width="2" height="2" viewBox="0 0 2 2" fill="none" xmlns="http://www.w3.org/2000/svg">
<path d="M0.537598 1.17383C0.537598 1.03223 0.560384 0.919108 0.605957 0.834473C0.65153 0.74821 0.713379 0.685547 0.791504 0.646484C0.871257 0.607422 0.960775 0.587891 1.06006 0.587891C1.15934 0.587891 1.24805 0.607422 1.32617 0.646484C1.40592 0.685547 1.46859 0.74821 1.51416 0.834473C1.55973 0.920736 1.58252 1.03385 1.58252 1.17383C1.58252 1.31055 1.55973 1.42285 1.51416 1.51074C1.46859 1.59701 1.40592 1.66048 1.32617 1.70117C1.24805 1.74186 1.15934 1.76221 1.06006 1.76221C0.960775 1.76221 0.871257 1.74186 0.791504 1.70117C0.713379 1.66048 0.65153 1.59701 0.605957 1.51074C0.560384 1.42448 0.537598 1.31217 0.537598 1.17383Z" fill="#999999"/>
</svg>
